<svg id="Layer_1" data-name="Layer 1" xmlns="http://www.w3.org/2000/svg" viewBox="0 0 347.41 111.15"><title>logo</title><path d="M171.92,364.22c-0.27-.29-0.51-0.52-0.72-0.78a103.2,103.2,0,0,1-17.89-31,83.52,83.52,0,0,1-3.85-14.88,56.19,56.19,0,0,1-.7-7.54,9.28,9.28,0,0,1,.51-3.48,8.12,8.12,0,0,1,15.58,1.32,7.54,7.54,0,0,1,.17,1.25A53.61,53.61,0,0,0,168.24,326a82.4,82.4,0,0,0,12.26,23c1.56,2.09,3.26,4.08,4.9,6.11,0.16,0.2.34,0.37,0.56,0.6a3.89,3.89,0,0,0,.49-0.4,88,88,0,0,0,17.17-28.77,62.7,62.7,0,0,0,3.09-12.73,38.67,38.67,0,0,0,.3-4.53,8.11,8.11,0,0,1,16.22-.24,42.28,42.28,0,0,1-.42,6.67c-2.05,14.91-8,28.26-16.49,40.53-1.66,2.38-3.51,4.63-5.24,7a2.31,2.31,0,0,1-2,1.1,14.79,14.79,0,0,0-2.24.34,7.72,7.72,0,0,1-2.89,0,3.27,3.27,0,0,0-1.5,0,13.48,13.48,0,0,1-4.63.36,12.7,12.7,0,0,0-2.65,0,14.48,14.48,0,0,1-4.76-.36,2.72,2.72,0,0,0-1.12-.07,9.48,9.48,0,0,1-3.76,0A12.07,12.07,0,0,0,171.92,364.22Z" transform="translate(-148.77 -267.57)" style="fill:#fff"/><path d="M172.07,367.31a8.34,8.34,0,0,1,2.64.11,11,11,0,0,0,4.63.19,2.75,2.75,0,0,1,1.11.08,14.64,14.64,0,0,0,4.63.36,13.81,13.81,0,0,1,2.77,0,14.65,14.65,0,0,0,4.63-.36,2.73,2.73,0,0,1,1.11-.07,10.87,10.87,0,0,0,4.5-.16,4.46,4.46,0,0,1,1.83-.11,4.59,4.59,0,0,1-.35.57,107.43,107.43,0,0,1-8.11,8.65,8,8,0,0,1-10.9.05,104,104,0,0,1-8.29-8.83A2.73,2.73,0,0,1,172.07,367.31Z" transform="translate(-148.77 -267.57)" style="fill:#fff"/><path d="M216.06,291.37a38.39,38.39,0,0,1-.79,6.27,5.17,5.17,0,0,1-.27,1,1.06,1.06,0,0,1-1.36.58,2.49,2.49,0,0,1-.35-0.16,27.28,27.28,0,0,1-8.53-6.59,17.33,17.33,0,0,1-3.94-8.48,18.81,18.81,0,0,1,1-9.57,3.59,3.59,0,0,1,.2-0.46,1.11,1.11,0,0,1,1.35-.65,3.75,3.75,0,0,1,.72.23c6.31,2.57,10.33,7.07,11.58,13.86C215.87,288.68,215.92,290,216.06,291.37Zm-12.4-15.64c-0.11.32-.19,0.51-0.25,0.71a15.31,15.31,0,0,0,2.09,13.37,20.79,20.79,0,0,0,6,5.65c0.12,0.08.29,0.19,0.44-.07-0.53-1.15-1.09-2.33-1.62-3.52a1.27,1.27,0,0,0-.83-0.71c-0.87-.3-1.74-0.63-2.6-1a5,5,0,0,1-.69-0.3,0.64,0.64,0,0,1-.26-0.77,0.59,0.59,0,0,1,.69-0.41c0.41,0.1.79,0.28,1.2,0.39a2.44,2.44,0,0,0,1.22.3,1.46,1.46,0,0,0,0-.39c-0.66-1.45-1.34-2.9-2-4.36a1.16,1.16,0,0,0-.73-0.64l-2.13-.79a4.91,4.91,0,0,1-.69-0.3,0.63,0.63,0,0,1-.27-0.77,0.61,0.61,0,0,1,.69-0.42c0.37,0.09.71,0.27,1.08,0.34s0.5,0.37.82,0.08a5.76,5.76,0,0,1-.18-0.72,0.58,0.58,0,0,1,.36-0.61,0.62,0.62,0,0,1,.79.18,5.51,5.51,0,0,1,.42.77c0.44,1,.88,1.91,1.32,2.86,0.12,0.25.27,0.49,0.46,0.84a3.33,3.33,0,0,0,.32-0.48c0.25-.63.51-1.25,0.71-1.89s0.57-.94,1.08-0.72c0.36,0.15.41,0.54,0.17,1.23-0.11.32-.24,0.63-0.36,0.94l-1.06,2.94,3.25,7a0.29,0.29,0,0,0,.38.21,18.54,18.54,0,0,0-.19-8A15.16,15.16,0,0,0,204.37,276C204.19,275.91,204,275.85,203.66,275.73Z" transform="translate(-148.77 -267.57)" style="fill:#fff"/><path d="M221.87,300.6a29.56,29.56,0,0,1-4.63-.61,2.44,2.44,0,0,1-.48-0.15,0.76,0.76,0,0,1-.48-1.11,12.33,12.33,0,0,1,.59-1.11,18.29,18.29,0,0,1,4.27-5.26A13,13,0,0,1,233.94,290l0.12,0c1.13,0.42,1.31.75,0.82,1.9a12.86,12.86,0,0,1-10.39,8.34C223.62,300.47,222.74,300.52,221.87,300.6Zm6.41-3.32a2.58,2.58,0,0,0,1.21-.63A11.38,11.38,0,0,0,233,292.4a6.81,6.81,0,0,0,.27-0.79,2.91,2.91,0,0,0-.27-0.16,2.49,2.49,0,0,0-.36-0.13,11.25,11.25,0,0,0-9.52,1.56,14.85,14.85,0,0,0-4,4.18c-0.07.11-.25,0.26,0,0.41a0.35,0.35,0,0,0,.12,0,11.15,11.15,0,0,1,1-.44,2.93,2.93,0,0,0,2.26-2.41,4.66,4.66,0,0,1,.36-0.94,0.65,0.65,0,0,1,.2-0.31,0.59,0.59,0,0,1,.45-0.11,0.66,0.66,0,0,1,.33.46,3.72,3.72,0,0,1-.24.84c-0.08.27-.15,0.54-0.25,0.88a2,2,0,0,0,.44-0.06c0.92-.41,1.83-0.85,2.76-1.25a1.38,1.38,0,0,0,.81-0.89c0.2-.6.44-1.18,0.69-1.76a0.43,0.43,0,0,1,.52-0.24,0.51,0.51,0,0,1,.36.58,2.7,2.7,0,0,0-.27,1.2,2.29,2.29,0,0,1,.61,0,0.55,0.55,0,0,1,.33.32,0.5,0.5,0,0,1-.13.44,3.81,3.81,0,0,1-.76.44l-2.5,1.17a5.44,5.44,0,0,0,.61.37c0.43,0.18.87,0.32,1.29,0.51s0.4,0.3.26,0.82a1.51,1.51,0,0,1-.1.23l-3-1a1.32,1.32,0,0,0-1.08,0c-1.48.7-3,1.38-4.44,2.07a1.37,1.37,0,0,0-.28.35,9.2,9.2,0,0,0,1.92.18,12.84,12.84,0,0,0,6-1.06A6.37,6.37,0,0,0,228.27,297.28Z" transform="translate(-148.77 -267.57)" style="fill:#fff"/><path d="M235.75,268.65l-1.37,0h-5.67a3.91,3.91,0,0,1-1-.13,0.49,0.49,0,0,1-.24-0.39,0.52,0.52,0,0,1,.24-0.39,1.38,1.38,0,0,1,.61-0.12h7.56a1,1,0,0,1,.49.08,1,1,0,0,1,.39.44,1.76,1.76,0,0,1,0,.62q0,3.59,0,7.19a1.77,1.77,0,0,1-.09.74,0.7,0.7,0,0,1-.5.28,0.47,0.47,0,0,1-.34-0.3,5.07,5.07,0,0,1-.07-1c0-1.85,0-3.7,0-5.55C235.79,269.66,235.77,269.25,235.75,268.65Z" transform="translate(-148.77 -267.57)" style="fill:#fff"/><path d="M194.49,268.82c0,0.36,0,.77,0,1.19,0,1.85,0,3.7,0,5.54a4.42,4.42,0,0,1-.06,1,0.58,0.58,0,0,1-.41.37,0.82,0.82,0,0,1-.47-0.33,0.6,0.6,0,0,1-.07-0.36c0-2.6,0-5.21,0-7.81,0-.63.19-0.81,0.85-0.82,1,0,1.93,0,2.9,0,1.6,0,3.19,0,4.79,0,0.58,0,.85.22,0.8,0.56s-0.24.45-.79,0.45l-6,0A2.46,2.46,0,0,0,194.49,268.82Z" transform="translate(-148.77 -267.57)" style="fill:#fff"/><path d="M235.8,309.87c0-.58,0-1,0-1.41,0-1.85,0-3.7,0-5.55a5.14,5.14,0,0,1,.08-1,0.46,0.46,0,0,1,.34-0.29,0.74,0.74,0,0,1,.5.28,1.21,1.21,0,0,1,.09.61q0,3.72,0,7.44c0,0.08,0,.17,0,0.25a0.64,0.64,0,0,1-.69.72c-0.17,0-.34,0-0.5,0h-7.06a3.69,3.69,0,0,1-.75-0.06,0.41,0.41,0,0,1-.33-0.46,0.43,0.43,0,0,1,.37-0.44,6.25,6.25,0,0,1,.88,0h5.67C234.81,309.92,235.22,309.89,235.8,309.87Z" transform="translate(-148.77 -267.57)" style="fill:#fff"/><path d="M194.48,309.88c0.54,0,1,0,1.37,0h5.55a7.23,7.23,0,0,1,1,.05,0.46,0.46,0,0,1,0,.9,2.84,2.84,0,0,1-.63.05H194.1a0.62,0.62,0,0,1-.66-0.61,5.5,5.5,0,0,1,0-.63q0-3.47,0-6.93a2.39,2.39,0,0,1,.11-0.86,0.67,0.67,0,0,1,.5-0.27,0.47,0.47,0,0,1,.33.31,5.27,5.27,0,0,1,.07,1c0,1.85,0,3.7,0,5.55C194.44,308.88,194.46,309.3,194.48,309.88Z" transform="translate(-148.77 -267.57)" style="fill:#fff"/><path d="M309,339.64c-0.22-6.81.61-13.18-.19-19.56a7.6,7.6,0,0,1-.06-1.69,2.17,2.17,0,0,1,2-1.89,2.26,2.26,0,0,1,2.32,1.5,8.49,8.49,0,0,1,.37,2.09c0.13,3.27.27,6.54,0.31,9.81,0.07,5.41-.06,10.82.13,16.22,0.21,6.26.68,12.5,1,18.75a2.93,2.93,0,0,1-.14,1.66,4.38,4.38,0,0,1-1.86,1.58,1.71,1.71,0,0,1-2.11-1,9.35,9.35,0,0,1-.68-2.85q-0.41-4.68-.66-9.37a10.72,10.72,0,0,0-1.23-4.48c-2.76-5.3-5.49-10.61-8.23-15.92a1.8,1.8,0,0,0-1.69-1.41c0,1-.09,1.94-0.1,2.88q-0.16,12.81-.31,25.62c0,0.43,0,.85,0,1.28-0.1,2.67-.78,3.84-2.31,3.92s-2.46-1.23-2.46-4.17c0-2.13.09-4.27,0.14-6.4,0.14-5.83.4-11.67,0.38-17.5,0-5.55-.34-11.09-0.5-16.64a22.75,22.75,0,0,1,.12-3.81,2.22,2.22,0,0,1,2.18-1.71,2.2,2.2,0,0,1,2.06,1.26,4.53,4.53,0,0,1,.33.78c2.38,7.36,6.64,13.8,10.14,20.6A4.37,4.37,0,0,0,309,339.64Z" transform="translate(-148.77 -267.57)" style="fill:#fff"/><path d="M258.24,353.8c1.54-3.15,1.65-6.14,2.22-9,1.5-7.52,2.88-15.07,4.32-22.61a11.66,11.66,0,0,1,.7-2.44,2.1,2.1,0,0,1,2.47-1.16,2.39,2.39,0,0,1,1.74,2.19,5,5,0,0,1-.09,1.27q-4.12,20.91-8.28,41.82a12.93,12.93,0,0,1-.91,2.83,2,2,0,0,1-3.49.27,11.42,11.42,0,0,1-1.23-3.14c-1.15-4.55-2.24-9.11-3.31-13.67-2-8.44-4-16.87-5.9-25.33a27.12,27.12,0,0,1-.58-5.06,2.18,2.18,0,0,1,2-2.35,2.07,2.07,0,0,1,2.36,1.93c1.53,10.14,4.47,20,6.75,29.94C257.32,350.65,257.74,352,258.24,353.8Z" transform="translate(-148.77 -267.57)" style="fill:#fff"/><path d="M323.88,321.48c-1.13,3.09-1.47,9.51-.81,15.88,1.14,0.14,2.35.25,3.56,0.43a2.15,2.15,0,0,1,0,4.29c-1.09.2-2.21,0.28-3.58,0.45-0.59,3.59-.2,7.12-0.2,10.63s-0.15,6.76.09,10.15c2.21,0.85,4.2.4,6.14,0.46a34.39,34.39,0,0,1,3.81.18,2.18,2.18,0,0,1,1.77,2.12,2.35,2.35,0,0,1-1.69,2.2,5,5,0,0,1-1.25.19c-3.27,0-6.53.12-9.8,0-2.35-.08-3.27-1.06-3.57-3.4a21.88,21.88,0,0,1-.12-2.55c-0.09-8.24-.25-16.47-0.23-24.71,0-4.82.3-9.65,0.47-14.47a19.7,19.7,0,0,1,.22-2.55c0.52-3.07,1.69-4.2,4.83-4.27s6.53,0.07,9.8.13a6.59,6.59,0,0,1,1.27.14,2.34,2.34,0,0,1,2,2.36,2.16,2.16,0,0,1-2.17,2.18c-1.84.07-3.69-.06-5.53-0.1C327.2,321.19,325.5,320.76,323.88,321.48Z" transform="translate(-148.77 -267.57)" style="fill:#fff"/><path d="M278.08,322.6c-1.22.12-2.21,0.26-3.19,0.29a4.29,4.29,0,0,1-1.65-.26,1.87,1.87,0,0,1-1.34-2,2.7,2.7,0,0,1,1-1.74,4.68,4.68,0,0,1,2.37-.72c3.83-.1,7.66-0.1,11.5-0.1a2.6,2.6,0,0,1,1.61.4,3.19,3.19,0,0,1,1,1.75,1.71,1.71,0,0,1-1.26,2,38.33,38.33,0,0,1-4,.52,4.18,4.18,0,0,0-.34.44,0.86,0.86,0,0,0-.14.39q0,19,0,37.91a12,12,0,0,0,.28,1.77c1.11,0.29,2.22.5,3.28,0.86a2.12,2.12,0,0,1,1.47,2.32,2.38,2.38,0,0,1-2,1.94,12.26,12.26,0,0,1-1.7.08h-9.8a11.32,11.32,0,0,1-1.7-.08,2.3,2.3,0,0,1-1.86-2,2.07,2.07,0,0,1,1.53-2.26,28.81,28.81,0,0,1,2.94-.41l2.41-.32C279.53,356.69,279.28,327.82,278.08,322.6Z" transform="translate(-148.77 -267.57)" style="fill:#fff"/><path d="M444.87,339.85a2.09,2.09,0,0,0,0,.65c2.7,5,3.15,10.55,3.42,16.1a15.74,15.74,0,0,0,1.54,6.86,17.1,17.1,0,0,1,2.27-.35,1.4,1.4,0,0,1,1.06.52,1.28,1.28,0,0,1,0,1.16c-1.66,2.4-4,2.44-5.47.09a14.11,14.11,0,0,1-1.85-6.5c-0.25-3.12-.53-6.23-0.78-9.35a12.45,12.45,0,0,0-1.78-5.64,6.87,6.87,0,0,0-1.42-1.56,1.82,1.82,0,0,0-2.84.73,12.82,12.82,0,0,0-.5,3.34c-0.16,5.69-.25,11.37-0.39,17.06a16.23,16.23,0,0,1-.3,2.94,1.23,1.23,0,0,1-.94.7,1.19,1.19,0,0,1-.95-0.66,18,18,0,0,1-.29-3.36c0.11-6.68.32-13.36,0.39-20,0.06-6.25,0-12.51,0-18.76a27.59,27.59,0,0,0-.33-2.83,17.59,17.59,0,0,1-2.34-.45,1.35,1.35,0,0,1-.79-0.87,1.21,1.21,0,0,1,.46-1,12,12,0,0,1,3.16-1.15,15.88,15.88,0,0,1,11,2.3,10.64,10.64,0,0,1,1.23,17.41c-0.65.54-1.39,1-2.07,1.49S445.29,339.5,444.87,339.85Zm-5.35-1.24c3.49-.65,6.64-2.09,8.81-5.11A7.87,7.87,0,0,0,447,322.75a11.67,11.67,0,0,0-5.68-2.75,9,9,0,0,0-2.32.16,6.17,6.17,0,0,0-.43,1.46q0,7.66.14,15.32a3.86,3.86,0,0,0,.37,1.2A2.44,2.44,0,0,0,439.52,338.62Z" transform="translate(-148.77 -267.57)" style="fill:#fff"/><path d="M417.65,318c0.06,1.53.15,2.62,0.15,3.7,0,6.4-.24,12.81-0.1,19.2a61.11,61.11,0,0,0,2.59,16.39,27.35,27.35,0,0,0,2.62,5.78c0.93,1.58,2.51,1.51,3.33-.11a19.34,19.34,0,0,0,1.7-4.78c1.31-6.45,1.27-13,1.35-19.55,0.07-5.4-.3-10.81-0.45-16.21a16.45,16.45,0,0,1,.14-3,1.05,1.05,0,0,1,1.95-.08,7,7,0,0,1,.37,2.05c0.58,10.23,1.06,20.47,0,30.7a59.64,59.64,0,0,1-1,7.18,17.48,17.48,0,0,1-2,5.12c-1.9,3.13-5,3.25-7.33.32a15.13,15.13,0,0,1-2.24-4.09,49.48,49.48,0,0,1-1.86-6.55,76.55,76.55,0,0,1-1.82-16.51q0-7.47.23-14.94A15.21,15.21,0,0,1,416,319C416.06,318.63,416.79,318.48,417.65,318Z" transform="translate(-148.77 -267.57)" style="fill:#fff"/><path d="M485.7,366.16c-4-.13-6.26-1.91-7.49-5.75a19,19,0,0,1-.56-7.18,1.36,1.36,0,0,1,.35-0.73,1.06,1.06,0,0,1,.69-0.43,1.48,1.48,0,0,1,1,.55,8.84,8.84,0,0,1,.34,2.06,37,37,0,0,0,.45,4.23c0.76,3.31,2.27,4.65,5.12,4.78,3.32,0.15,6.28-1.5,7.3-4.14a9.4,9.4,0,0,0-.8-8.61A20.67,20.67,0,0,0,488.9,347c-1.52-1.49-3.25-2.76-4.85-4.18-1.38-1.23-2.74-2.48-4-3.8-5.35-5.45-3.77-12.93-.41-17.15a9.68,9.68,0,0,1,5.61-3.65c4.81-1,8.78,1.34,10.24,6.09,0.68,2.2,1.09,4.45.2,6.68a1.87,1.87,0,0,1-1.31.7,1.25,1.25,0,0,1-.69-0.85c-0.12-.69,0-1.42-0.07-2.12a19.86,19.86,0,0,0-.61-3.76c-1.41-4.34-5.81-5.72-9.61-3.16s-6.44,10.33-2.13,14.72c1.79,1.82,3.68,3.55,5.55,5.29s3.89,3.35,5.63,5.21a12.82,12.82,0,0,1,3.7,9.27C496,362.38,491.79,366.36,485.7,366.16Z" transform="translate(-148.77 -267.57)" style="fill:#fff"/><path d="M343.31,342.36c0,6.6-.22,13.25.46,19.9,0.12,1.13.24,2.26,0.31,3.39a1.35,1.35,0,0,1-1,1.63,1.19,1.19,0,0,1-1.35-1.26c-0.3-2.82-.71-5.64-0.78-8.47-0.14-5.82-.1-11.64-0.11-17.46,0-4.68.06-9.37,0-14.05-0.06-2.8-.37-5.6-0.57-8.57a4.57,4.57,0,0,1,1.43-.51,12.21,12.21,0,0,1,11.57,7.85,11.46,11.46,0,0,1-3.74,13.37C347.62,339.66,345.52,340.87,343.31,342.36Zm0.69-4.28c2.33,0,3.77-1.62,5.2-3.11a8.41,8.41,0,0,0,2.18-6.24,8.6,8.6,0,0,0-2.86-6.4c-1.33-1.21-2.7-2.51-4.76-2.1C343.13,324,343.27,335.37,344,338.08Z" transform="translate(-148.77 -267.57)" style="fill:#fff"/><path d="M388.12,358.42c1.43-.13,2,0.42,1.9,1.16a8.77,8.77,0,0,1-4.21,6.6,5.11,5.11,0,0,1-6.64-.8A12.49,12.49,0,0,1,376.6,361a51.47,51.47,0,0,1-2.1-8.68c-1.05-7.48-1.83-15-.36-22.52a52.23,52.23,0,0,1,2-7.4,9.77,9.77,0,0,1,4.67-5.36,5.66,5.66,0,0,1,8.07,2.15,10.68,10.68,0,0,1,1.41,8.19,1.19,1.19,0,0,1-.86.72,1.82,1.82,0,0,1-1.22-.86c-0.22-1,0-2-.26-3a15.29,15.29,0,0,0-1.44-3.95,3.2,3.2,0,0,0-4.48-1.11,6.55,6.55,0,0,0-3.12,3.4,31.94,31.94,0,0,0-2.08,6.47,62,62,0,0,0-.81,10.19,72,72,0,0,0,2.28,18.59,20.28,20.28,0,0,0,2.17,5.05c1.12,1.85,3.13,2,4.74.53a9.77,9.77,0,0,0,1.81-2.34A22.37,22.37,0,0,0,388.12,358.42Z" transform="translate(-148.77 -267.57)" style="fill:#fff"/><path d="M459.86,338.56a37.9,37.9,0,0,1,4.06.31,1.73,1.73,0,0,1,.86,1.2,1.18,1.18,0,0,1-.7.92c-1.38.25-2.78,0.35-4.31,0.53a18.27,18.27,0,0,0-.5,2.54c-0.27,5.12.13,18.06,0.61,20.54,2.13,0.77,4.41.29,6.64,0.38,1.27,0,2.54.11,3.8,0.23a0.78,0.78,0,0,1,.47.6,1.71,1.71,0,0,1-.4,1.07,1.88,1.88,0,0,1-1.15.46c-3.13.07-6.26,0.19-9.38,0.09-2.17-.07-2.75-0.79-2.93-2.86,0-.42,0-0.85,0-1.28,0-12.66,0-25.32.08-38a34,34,0,0,1,.53-5.07,2.84,2.84,0,0,1,2.9-2.63c3.83,0,7.66.23,11.49,0.39,0.48,0,.49.12,1,1.62-2,1.12-4.16.35-6.24,0.4s-3.94,0-6,0a13.76,13.76,0,0,0-1,2.53C459.13,326,459.26,335.89,459.86,338.56Z" transform="translate(-148.77 -267.57)" style="fill:#fff"/><path d="M365.84,364.4l5.06,1.17a5.87,5.87,0,0,1-1.42,1.68,5.66,5.66,0,0,1-2.1.14h-8.54c-0.43,0-.85,0-1.28,0a1.46,1.46,0,0,1-1.6-1.12c-0.11-.85.59-1.2,1.37-1.26,1.28-.1,2.56-0.13,3.83-0.27a11.35,11.35,0,0,0,1.87-.58c-0.14-13.09.38-26.17-.07-39.24a28.73,28.73,0,0,0-.37-2.86c-1.67-.88-3.24-0.26-4.76-0.37-0.7,0-1.52-.11-1.49-1.08a1.44,1.44,0,0,1,1.44-1.29,16.24,16.24,0,0,1,2.54-.25c2.85,0,5.69,0,8.54,0a2.86,2.86,0,0,1,1.26.13,2.06,2.06,0,0,1,1.11,1.07,1.5,1.5,0,0,1-1,1.09c-1.39.21-2.82,0.22-4.49,0.32-0.6,3.54,0,7.08-.12,10.58s0,7.12,0,10.68-0.06,7.12-.06,10.68A97.14,97.14,0,0,0,365.84,364.4Z" transform="translate(-148.77 -267.57)" style="fill:#fff"/><path d="M399.79,321.9c-1.27-1.11-2.6-.78-3.84-0.87a22.34,22.34,0,0,1-2.5-.31,0.77,0.77,0,0,1-.45-0.62,1.51,1.51,0,0,1,.48-1,3.63,3.63,0,0,1,1.63-.38c4.68,0,9.37-.06,14-0.08a3,3,0,0,1,.42,0c0.72,0.1,1.5.32,1.58,1.12s-0.7,1.14-1.43,1.18c-1.13.07-2.27,0-3.4,0.09-1,.06-1.94.21-3.17,0.36a24.17,24.17,0,0,0-.56,3.32q-0.17,6-.18,11.92c0,8.09,0,16.18,0,24.27,0,1.27,0,2.55-.12,3.82a0.93,0.93,0,0,1-1.06,1,1.72,1.72,0,0,1-1.09-1.1,25.51,25.51,0,0,1-.2-3.81q0-18.1,0-36.19C400,323.66,399.85,322.69,399.79,321.9Z" transform="translate(-148.77 -267.57)" style="fill:#fff"/></svg>